{
    "asset" : {
        "generator" : "Khronos glTF Blender I/O v1.7.33",
        "version" : "2.0"
    },
    "scene" : 0,
    "scenes" : [
        {
            "name" : "Scene",
            "nodes" : [
                0
            ]
        }
    ],
    "nodes" : [
        {
            "mesh" : 0,
            "name" : "Cube.003",
            "scale" : [
                0.6349404454231262,
                0.07459476590156555,
                0.9059369564056396
            ],
            "translation" : [
                0.7878729701042175,
                0.25837501883506775,
                -0.7178334593772888
            ]
        }
    ],
    "materials" : [
        {
            "doubleSided" : true,
            "name" : "Material.012",
            "pbrMetallicRoughness" : {
                "baseColorFactor" : [
                    0.1733512580394745,
                    0.04721156880259514,
                    0.010672594420611858,
                    1
                ],
                "metallicFactor" : 0,
                "roughnessFactor" : 0.5955882668495178
            }
        },
        {
            "doubleSided" : true,
            "name" : "Material.003",
            "pbrMetallicRoughness" : {
                "baseColorFactor" : [
                    0.8000000715255737,
                    0.015423850156366825,
                    0.00939292274415493,
                    1
                ],
                "metallicFactor" : 0,
                "roughnessFactor" : 0.5
            }
        },
        {
            "doubleSided" : true,
            "name" : "Material.013",
            "pbrMetallicRoughness" : {
                "baseColorFactor" : [
                    0.5382243990898132,
                    0.5382243990898132,
                    0.5382243990898132,
                    1
                ],
                "metallicFactor" : 0,
                "roughnessFactor" : 0.5
            }
        },
        {
            "doubleSided" : true,
            "name" : "Material.011",
            "pbrMetallicRoughness" : {
                "baseColorFactor" : [
                    0.6618631482124329,
                    0.6618631482124329,
                    0.6618631482124329,
                    1
                ],
                "metallicFactor" : 0,
                "roughnessFactor" : 0.5
            }
        },
        {
            "doubleSided" : true,
            "name" : "Material.010",
            "pbrMetallicRoughness" : {
                "baseColorFactor" : [
                    0.800000011920929,
                    0.800000011920929,
                    0.800000011920929,
                    1
                ],
                "metallicFactor" : 0,
                "roughnessFactor" : 0.5
            }
        }
    ],
    "meshes" : [
        {
            "name" : "Cube.003",
            "primitives" : [
                {
                    "attributes" : {
                        "POSITION" : 0,
                        "NORMAL" : 1,
                        "TEXCOORD_0" : 2
                    },
                    "indices" : 3,
                    "material" : 0
                },
                {
                    "attributes" : {
                        "POSITION" : 4,
                        "NORMAL" : 5,
                        "TEXCOORD_0" : 6
                    },
                    "indices" : 7,
                    "material" : 1
                },
                {
                    "attributes" : {
                        "POSITION" : 8,
                        "NORMAL" : 9,
                        "TEXCOORD_0" : 10
                    },
                    "indices" : 11,
                    "material" : 2
                },
                {
                    "attributes" : {
                        "POSITION" : 12,
                        "NORMAL" : 13,
                        "TEXCOORD_0" : 14
                    },
                    "indices" : 15,
                    "material" : 3
                },
                {
                    "attributes" : {
                        "POSITION" : 16,
                        "NORMAL" : 17,
                        "TEXCOORD_0" : 18
                    },
                    "indices" : 19,
                    "material" : 4
                }
            ]
        }
    ],
    "accessors" : [
        {
            "bufferView" : 0,
            "componentType" : 5126,
            "count" : 200,
            "max" : [
                1,
                4.543653964996338,
                1.0588124990463257
            ],
            "min" : [
                -1,
                -2.2798397541046143,
                -1.0436501502990723
            ],
            "type" : "VEC3"
        },
        {
            "bufferView" : 1,
            "componentType" : 5126,
            "count" : 200,
            "type" : "VEC3"
        },
        {
            "bufferView" : 2,
            "componentType" : 5126,
            "count" : 200,
            "type" : "VEC2"
        },
        {
            "bufferView" : 3,
            "componentType" : 5123,
            "count" : 456,
            "type" : "SCALAR"
        },
        {
            "bufferView" : 4,
            "componentType" : 5126,
            "count" : 242,
            "max" : [
                1.0664142370224,
                1.9008781909942627,
                1.000868320465088
            ],
            "min" : [
                -1.070491909980774,
                -0.261704683303833,
                -0.6468731164932251
            ],
            "type" : "VEC3"
        },
        {
            "bufferView" : 5,
            "componentType" : 5126,
            "count" : 242,
            "type" : "VEC3"
        },
        {
            "bufferView" : 6,
            "componentType" : 5126,
            "count" : 242,
            "type" : "VEC2"
        },
        {
            "bufferView" : 7,
            "componentType" : 5123,
            "count" : 372,
            "type" : "SCALAR"
        },
        {
            "bufferView" : 8,
            "componentType" : 5126,
            "count" : 242,
            "max" : [
                1.098462462425232,
                2.1918840408325195,
                -0.3304271697998047
            ],
            "min" : [
                -1.0902652740478516,
                -0.3117802143096924,
                -0.6319964528083801
            ],
            "type" : "VEC3"
        },
        {
            "bufferView" : 9,
            "componentType" : 5126,
            "count" : 242,
            "type" : "VEC3"
        },
        {
            "bufferView" : 10,
            "componentType" : 5126,
            "count" : 242,
            "type" : "VEC2"
        },
        {
            "bufferView" : 11,
            "componentType" : 5123,
            "count" : 372,
            "type" : "SCALAR"
        },
        {
            "bufferView" : 12,
            "componentType" : 5126,
            "count" : 96,
            "max" : [
                0.9009461402893066,
                2.847018241882324,
                -0.752588152885437
            ],
            "min" : [
                0.11399084329605103,
                1.4071311950683594,
                -0.993463397026062
            ],
            "type" : "VEC3"
        },
        {
            "bufferView" : 13,
            "componentType" : 5126,
            "count" : 96,
            "type" : "VEC3"
        },
        {
            "bufferView" : 14,
            "componentType" : 5126,
            "count" : 96,
            "type" : "VEC2"
        },
        {
            "bufferView" : 15,
            "componentType" : 5123,
            "count" : 132,
            "type" : "SCALAR"
        },
        {
            "bufferView" : 16,
            "componentType" : 5126,
            "count" : 96,
            "max" : [
                -0.10570031404495239,
                2.846698760986328,
                -0.7525875568389893
            ],
            "min" : [
                -0.8926773071289062,
                1.4071311950683594,
                -0.9934834837913513
            ],
            "type" : "VEC3"
        },
        {
            "bufferView" : 17,
            "componentType" : 5126,
            "count" : 96,
            "type" : "VEC3"
        },
        {
            "bufferView" : 18,
            "componentType" : 5126,
            "count" : 96,
            "type" : "VEC2"
        },
        {
            "bufferView" : 19,
            "componentType" : 5123,
            "count" : 132,
            "type" : "SCALAR"
        }
    ],
    "bufferViews" : [
        {
            "buffer" : 0,
            "byteLength" : 2400,
            "byteOffset" : 0
        },
        {
            "buffer" : 0,
            "byteLength" : 2400,
            "byteOffset" : 2400
        },
        {
            "buffer" : 0,
            "byteLength" : 1600,
            "byteOffset" : 4800
        },
        {
            "buffer" : 0,
            "byteLength" : 912,
            "byteOffset" : 6400
        },
        {
            "buffer" : 0,
            "byteLength" : 2904,
            "byteOffset" : 7312
        },
        {
            "buffer" : 0,
            "byteLength" : 2904,
            "byteOffset" : 10216
        },
        {
            "buffer" : 0,
            "byteLength" : 1936,
            "byteOffset" : 13120
        },
        {
            "buffer" : 0,
            "byteLength" : 744,
            "byteOffset" : 15056
        },
        {
            "buffer" : 0,
            "byteLength" : 2904,
            "byteOffset" : 15800
        },
        {
            "buffer" : 0,
            "byteLength" : 2904,
            "byteOffset" : 18704
        },
        {
            "buffer" : 0,
            "byteLength" : 1936,
            "byteOffset" : 21608
        },
        {
            "buffer" : 0,
            "byteLength" : 744,
            "byteOffset" : 23544
        },
        {
            "buffer" : 0,
            "byteLength" : 1152,
            "byteOffset" : 24288
        },
        {
            "buffer" : 0,
            "byteLength" : 1152,
            "byteOffset" : 25440
        },
        {
            "buffer" : 0,
            "byteLength" : 768,
            "byteOffset" : 26592
        },
        {
            "buffer" : 0,
            "byteLength" : 264,
            "byteOffset" : 27360
        },
        {
            "buffer" : 0,
            "byteLength" : 1152,
            "byteOffset" : 27624
        },
        {
            "buffer" : 0,
            "byteLength" : 1152,
            "byteOffset" : 28776
        },
        {
            "buffer" : 0,
            "byteLength" : 768,
            "byteOffset" : 29928
        },
        {
            "buffer" : 0,
            "byteLength" : 264,
            "byteOffset" : 30696
        }
    ],
    "buffers" : [
        {
            "byteLength" : 30960,
            "uri" : "data:application/octet-stream;base64,"
        }
    ]
}
