{
    "asset" : {
        "generator" : "Khronos glTF Blender I/O v1.7.33",
        "version" : "2.0"
    },
    "scene" : 0,
    "scenes" : [
        {
            "name" : "Scene",
            "nodes" : [
                0,
                1
            ]
        }
    ],
    "nodes" : [
        {
            "mesh" : 0,
            "name" : "Cylinder.001",
            "scale" : [
                0.4106162488460541,
                0.42387330532073975,
                0.4106062948703766
            ],
            "translation" : [
                -0.15773925185203552,
                0.5515156388282776,
                -0.9908961057662964
            ]
        },
        {
            "mesh" : 1,
            "name" : "Cylinder",
            "scale" : [
                0.42367738485336304,
                0.3341285288333893,
                0.42367738485336304
            ],
            "translation" : [
                -0.15773925185203552,
                0.23786717653274536,
                -0.9859375953674316
            ]
        }
    ],
    "materials" : [
        {
            "doubleSided" : true,
            "name" : "bread_outside._top",
            "pbrMetallicRoughness" : {
                "metallicFactor" : 0,
                "roughnessFactor" : 0.6101281642913818
            }
        },
        {
            "doubleSided" : true,
            "name" : "bread_outside._top.001",
            "pbrMetallicRoughness" : {
                "metallicFactor" : 0,
                "roughnessFactor" : 0.6101281642913818
            }
        }
    ],
    "meshes" : [
        {
            "name" : "Cylinder.001",
            "primitives" : [
                {
                    "attributes" : {
                        "POSITION" : 0,
                        "NORMAL" : 1,
                        "TEXCOORD_0" : 2
                    },
                    "indices" : 3,
                    "material" : 0
                }
            ]
        },
        {
            "name" : "Cylinder",
            "primitives" : [
                {
                    "attributes" : {
                        "POSITION" : 4,
                        "NORMAL" : 5,
                        "TEXCOORD_0" : 6
                    },
                    "indices" : 7,
                    "material" : 1
                }
            ]
        }
    ],
    "accessors" : [
        {
            "bufferView" : 0,
            "componentType" : 5126,
            "count" : 1647,
            "max" : [
                1.0208956003189087,
                0.4871346652507782,
                1.0208957195281982
            ],
            "min" : [
                -1.0208957195281982,
                -0.19274765253067017,
                -1.0208956003189087
            ],
            "type" : "VEC3"
        },
        {
            "bufferView" : 1,
            "componentType" : 5126,
            "count" : 1647,
            "type" : "VEC3"
        },
        {
            "bufferView" : 2,
            "componentType" : 5126,
            "count" : 1647,
            "type" : "VEC2"
        },
        {
            "bufferView" : 3,
            "componentType" : 5123,
            "count" : 9600,
            "type" : "SCALAR"
        },
        {
            "bufferView" : 4,
            "componentType" : 5126,
            "count" : 57079,
            "max" : [
                1.0095365047454834,
                0.23743386566638947,
                1.0092743635177612
            ],
            "min" : [
                -1.009070634841919,
                -0.2539379298686981,
                -1.010116696357727
            ],
            "type" : "VEC3"
        },
        {
            "bufferView" : 5,
            "componentType" : 5126,
            "count" : 57079,
            "type" : "VEC3"
        },
        {
            "bufferView" : 6,
            "componentType" : 5126,
            "count" : 57079,
            "type" : "VEC2"
        },
        {
            "bufferView" : 7,
            "componentType" : 5123,
            "count" : 291048,
            "type" : "SCALAR"
        }
    ],
    "bufferViews" : [
        {
            "buffer" : 0,
            "byteLength" : 19764,
            "byteOffset" : 0
        },
        {
            "buffer" : 0,
            "byteLength" : 19764,
            "byteOffset" : 19764
        },
        {
            "buffer" : 0,
            "byteLength" : 13176,
            "byteOffset" : 39528
        },
        {
            "buffer" : 0,
            "byteLength" : 19200,
            "byteOffset" : 52704
        },
        {
            "buffer" : 0,
            "byteLength" : 684948,
            "byteOffset" : 71904
        },
        {
            "buffer" : 0,
            "byteLength" : 684948,
            "byteOffset" : 756852
        },
        {
            "buffer" : 0,
            "byteLength" : 456632,
            "byteOffset" : 1441800
        },
        {
            "buffer" : 0,
            "byteLength" : 582096,
            "byteOffset" : 1898432
        }
    ],
    "buffers" : [
        {
            "byteLength" : 2480528,
            "uri" : "data:application/octet-stream;base64,"
        }
    ]
}
