{
    "asset" : {
        "generator" : "Khronos glTF Blender I/O v1.7.33",
        "version" : "2.0"
    },
    "scene" : 0,
    "scenes" : [
        {
            "name" : "Scene",
            "nodes" : [
                0
            ]
        }
    ],
    "nodes" : [
        {
            "mesh" : 0,
            "name" : "Cube.014",
            "rotation" : [
                0.06378462165594101,
                -0.9979636669158936,
                0,
                7.358423204095743e-08
            ],
            "scale" : [
                0.007702298928052187,
                0.24606968462467194,
                0.0076262555085122585
            ],
            "translation" : [
                -1.7835549116134644,
                0.318048357963562,
                -0.1006312370300293
            ]
        }
    ],
    "materials" : [
        {
            "doubleSided" : true,
            "name" : "Material.009",
            "pbrMetallicRoughness" : {
                "baseColorFactor" : [
                    0.800000011920929,
                    0.800000011920929,
                    0.800000011920929,
                    1
                ],
                "metallicFactor" : 0,
                "roughnessFactor" : 0.4000000059604645
            }
        },
        {
            "doubleSided" : true,
            "name" : "Material.006",
            "pbrMetallicRoughness" : {
                "baseColorFactor" : [
                    0.8000000715255737,
                    0.5866007804870605,
                    0.2509189546108246,
                    1
                ],
                "metallicFactor" : 0,
                "roughnessFactor" : 0.5
            }
        },
        {
            "doubleSided" : true,
            "name" : "Material.020",
            "pbrMetallicRoughness" : {
                "baseColorFactor" : [
                    0.1149355098605156,
                    0.02408236265182495,
                    0.014404813759028912,
                    1
                ],
                "metallicFactor" : 0,
                "roughnessFactor" : 0.8161764740943909
            }
        },
        {
            "doubleSided" : true,
            "name" : "Material.016",
            "pbrMetallicRoughness" : {
                "baseColorFactor" : [
                    0.3843744993209839,
                    0.2728806138038635,
                    0.05204373225569725,
                    1
                ],
                "roughnessFactor" : 0.38235294818878174
            }
        }
    ],
    "meshes" : [
        {
            "name" : "Cube.015",
            "primitives" : [
                {
                    "attributes" : {
                        "POSITION" : 0,
                        "NORMAL" : 1,
                        "TEXCOORD_0" : 2
                    },
                    "indices" : 3,
                    "material" : 0
                },
                {
                    "attributes" : {
                        "POSITION" : 4,
                        "NORMAL" : 5,
                        "TEXCOORD_0" : 6
                    },
                    "indices" : 7,
                    "material" : 1
                },
                {
                    "attributes" : {
                        "POSITION" : 8,
                        "NORMAL" : 9,
                        "TEXCOORD_0" : 10
                    },
                    "indices" : 11,
                    "material" : 2
                },
                {
                    "attributes" : {
                        "POSITION" : 12,
                        "NORMAL" : 13,
                        "TEXCOORD_0" : 14
                    },
                    "indices" : 15,
                    "material" : 3
                }
            ]
        }
    ],
    "accessors" : [
        {
            "bufferView" : 0,
            "componentType" : 5126,
            "count" : 328,
            "max" : [
                1.0000004768371582,
                1.000000238418579,
                185.38710021972656
            ],
            "min" : [
                -81.34929656982422,
                -1.2660191059112549,
                -1.1494473218917847
            ],
            "type" : "VEC3"
        },
        {
            "bufferView" : 1,
            "componentType" : 5126,
            "count" : 328,
            "type" : "VEC3"
        },
        {
            "bufferView" : 2,
            "componentType" : 5126,
            "count" : 328,
            "type" : "VEC2"
        },
        {
            "bufferView" : 3,
            "componentType" : 5123,
            "count" : 528,
            "type" : "SCALAR"
        },
        {
            "bufferView" : 4,
            "componentType" : 5126,
            "count" : 1944,
            "max" : [
                7.430660247802734,
                1.1277086734771729,
                192.55142211914062
            ],
            "min" : [
                -85.21728515625,
                0.6548143625259399,
                -3.682281494140625
            ],
            "type" : "VEC3"
        },
        {
            "bufferView" : 5,
            "componentType" : 5126,
            "count" : 1944,
            "type" : "VEC3"
        },
        {
            "bufferView" : 6,
            "componentType" : 5126,
            "count" : 1944,
            "type" : "VEC2"
        },
        {
            "bufferView" : 7,
            "componentType" : 5123,
            "count" : 2916,
            "type" : "SCALAR"
        },
        {
            "bufferView" : 8,
            "componentType" : 5126,
            "count" : 1944,
            "max" : [
                10.369544982910156,
                1.0008580684661865,
                178.610595703125
            ],
            "min" : [
                -83.51752471923828,
                0.2064383625984192,
                129.39605712890625
            ],
            "type" : "VEC3"
        },
        {
            "bufferView" : 9,
            "componentType" : 5126,
            "count" : 1944,
            "type" : "VEC3"
        },
        {
            "bufferView" : 10,
            "componentType" : 5126,
            "count" : 1944,
            "type" : "VEC2"
        },
        {
            "bufferView" : 11,
            "componentType" : 5123,
            "count" : 2916,
            "type" : "SCALAR"
        },
        {
            "bufferView" : 12,
            "componentType" : 5126,
            "count" : 650,
            "max" : [
                -81.61869049072266,
                0.47431421279907227,
                155.9066925048828
            ],
            "min" : [
                -85.07076263427734,
                0.36620664596557617,
                152.47116088867188
            ],
            "type" : "VEC3"
        },
        {
            "bufferView" : 13,
            "componentType" : 5126,
            "count" : 650,
            "type" : "VEC3"
        },
        {
            "bufferView" : 14,
            "componentType" : 5126,
            "count" : 650,
            "type" : "VEC2"
        },
        {
            "bufferView" : 15,
            "componentType" : 5123,
            "count" : 936,
            "type" : "SCALAR"
        }
    ],
    "bufferViews" : [
        {
            "buffer" : 0,
            "byteLength" : 3936,
            "byteOffset" : 0
        },
        {
            "buffer" : 0,
            "byteLength" : 3936,
            "byteOffset" : 3936
        },
        {
            "buffer" : 0,
            "byteLength" : 2624,
            "byteOffset" : 7872
        },
        {
            "buffer" : 0,
            "byteLength" : 1056,
            "byteOffset" : 10496
        },
        {
            "buffer" : 0,
            "byteLength" : 23328,
            "byteOffset" : 11552
        },
        {
            "buffer" : 0,
            "byteLength" : 23328,
            "byteOffset" : 34880
        },
        {
            "buffer" : 0,
            "byteLength" : 15552,
            "byteOffset" : 58208
        },
        {
            "buffer" : 0,
            "byteLength" : 5832,
            "byteOffset" : 73760
        },
        {
            "buffer" : 0,
            "byteLength" : 23328,
            "byteOffset" : 79592
        },
        {
            "buffer" : 0,
            "byteLength" : 23328,
            "byteOffset" : 102920
        },
        {
            "buffer" : 0,
            "byteLength" : 15552,
            "byteOffset" : 126248
        },
        {
            "buffer" : 0,
            "byteLength" : 5832,
            "byteOffset" : 141800
        },
        {
            "buffer" : 0,
            "byteLength" : 7800,
            "byteOffset" : 147632
        },
        {
            "buffer" : 0,
            "byteLength" : 7800,
            "byteOffset" : 155432
        },
        {
            "buffer" : 0,
            "byteLength" : 5200,
            "byteOffset" : 163232
        },
        {
            "buffer" : 0,
            "byteLength" : 1872,
            "byteOffset" : 168432
        }
    ],
    "buffers" : [
        {
            "byteLength" : 170304,
            "uri" : "data:application/octet-stream;base64,"
        }
    ]
}
