{
    "asset" : {
        "generator" : "Khronos glTF Blender I/O v1.7.33",
        "version" : "2.0"
    },
    "scene" : 0,
    "scenes" : [
        {
            "name" : "Scene",
            "nodes" : [
                0,
                1
            ]
        }
    ],
    "nodes" : [
        {
            "mesh" : 0,
            "name" : "midel",
            "scale" : [
                1.016496181488037,
                0.17149198055267334,
                1.016496181488037
            ]
        },
        {
            "mesh" : 1,
            "name" : "blades",
            "rotation" : [
                0,
                -0.7112538814544678,
                0,
                0.7029352188110352
            ],
            "scale" : [
                0.8257752656936646,
                -0.01721091940999031,
                0.8257752656936646
            ]
        }
    ],
    "animations" : [
        {
            "channels" : [
                {
                    "sampler" : 0,
                    "target" : {
                        "node" : 1,
                        "path" : "translation"
                    }
                },
                {
                    "sampler" : 1,
                    "target" : {
                        "node" : 1,
                        "path" : "rotation"
                    }
                },
                {
                    "sampler" : 2,
                    "target" : {
                        "node" : 1,
                        "path" : "scale"
                    }
                }
            ],
            "name" : "bladesAction",
            "samplers" : [
                {
                    "input" : 16,
                    "interpolation" : "LINEAR",
                    "output" : 17
                },
                {
                    "input" : 18,
                    "interpolation" : "LINEAR",
                    "output" : 19
                },
                {
                    "input" : 16,
                    "interpolation" : "LINEAR",
                    "output" : 20
                }
            ]
        }
    ],
    "materials" : [
        {
            "doubleSided" : true,
            "name" : "Material.003",
            "pbrMetallicRoughness" : {
                "baseColorFactor" : [
                    1,
                    0.4639173448085785,
                    0.1255781501531601,
                    1
                ],
                "metallicFactor" : 0.8003546595573425,
                "roughnessFactor" : 0.5
            }
        },
        {
            "doubleSided" : true,
            "name" : "Material.001",
            "pbrMetallicRoughness" : {
                "baseColorFactor" : [
                    0.20863692462444305,
                    0.02624119631946087,
                    0,
                    1
                ],
                "metallicFactor" : 0.8297872543334961,
                "roughnessFactor" : 0.3510638475418091
            }
        },
        {
            "doubleSided" : true,
            "name" : "Material.005",
            "pbrMetallicRoughness" : {
                "baseColorFactor" : [
                    0.8000000715255737,
                    0.21955402195453644,
                    0.08235420286655426,
                    1
                ],
                "metallicFactor" : 0.800000011920929,
                "roughnessFactor" : 0.5
            }
        }
    ],
    "meshes" : [
        {
            "name" : "Sphere",
            "primitives" : [
                {
                    "attributes" : {
                        "POSITION" : 0,
                        "NORMAL" : 1,
                        "TEXCOORD_0" : 2
                    },
                    "indices" : 3,
                    "material" : 0
                },
                {
                    "attributes" : {
                        "POSITION" : 4,
                        "NORMAL" : 5,
                        "TEXCOORD_0" : 6
                    },
                    "indices" : 7,
                    "material" : 1
                },
                {
                    "attributes" : {
                        "POSITION" : 8,
                        "NORMAL" : 9,
                        "TEXCOORD_0" : 10
                    },
                    "indices" : 11,
                    "material" : 2
                }
            ]
        },
        {
            "name" : "Cube.002",
            "primitives" : [
                {
                    "attributes" : {
                        "POSITION" : 12,
                        "NORMAL" : 13,
                        "TEXCOORD_0" : 14
                    },
                    "indices" : 15,
                    "material" : 1
                }
            ]
        }
    ],
    "accessors" : [
        {
            "bufferView" : 0,
            "componentType" : 5126,
            "count" : 408,
            "max" : [
                0.7071069478988647,
                -0.7071067690849304,
                0.7071070671081543
            ],
            "min" : [
                -0.7071067094802856,
                -1.12108314037323,
                -0.707106351852417
            ],
            "type" : "VEC3"
        },
        {
            "bufferView" : 1,
            "componentType" : 5126,
            "count" : 408,
            "type" : "VEC3"
        },
        {
            "bufferView" : 2,
            "componentType" : 5126,
            "count" : 408,
            "type" : "VEC2"
        },
        {
            "bufferView" : 3,
            "componentType" : 5123,
            "count" : 2016,
            "type" : "SCALAR"
        },
        {
            "bufferView" : 4,
            "componentType" : 5126,
            "count" : 955,
            "max" : [
                1.000000238418579,
                20.436349868774414,
                1.0000003576278687
            ],
            "min" : [
                -0.9999998211860657,
                -0.7071067690849304,
                -1
            ],
            "type" : "VEC3"
        },
        {
            "bufferView" : 5,
            "componentType" : 5126,
            "count" : 955,
            "type" : "VEC3"
        },
        {
            "bufferView" : 6,
            "componentType" : 5126,
            "count" : 955,
            "type" : "VEC2"
        },
        {
            "bufferView" : 7,
            "componentType" : 5123,
            "count" : 4218,
            "type" : "SCALAR"
        },
        {
            "bufferView" : 8,
            "componentType" : 5126,
            "count" : 327,
            "max" : [
                0.8314697742462158,
                1.5050383806228638,
                0.831469714641571
            ],
            "min" : [
                -0.8314692378044128,
                0.5555701851844788,
                -0.8314696550369263
            ],
            "type" : "VEC3"
        },
        {
            "bufferView" : 9,
            "componentType" : 5126,
            "count" : 327,
            "type" : "VEC3"
        },
        {
            "bufferView" : 10,
            "componentType" : 5126,
            "count" : 327,
            "type" : "VEC2"
        },
        {
            "bufferView" : 11,
            "componentType" : 5123,
            "count" : 1536,
            "type" : "SCALAR"
        },
        {
            "bufferView" : 12,
            "componentType" : 5126,
            "count" : 222,
            "max" : [
                6.184293270111084,
                0.4810131788253784,
                6.171151638031006
            ],
            "min" : [
                -6.168500900268555,
                -1.5189868211746216,
                -6.18637228012085
            ],
            "type" : "VEC3"
        },
        {
            "bufferView" : 13,
            "componentType" : 5126,
            "count" : 222,
            "type" : "VEC3"
        },
        {
            "bufferView" : 14,
            "componentType" : 5126,
            "count" : 222,
            "type" : "VEC2"
        },
        {
            "bufferView" : 15,
            "componentType" : 5123,
            "count" : 336,
            "type" : "SCALAR"
        },
        {
            "bufferView" : 16,
            "componentType" : 5126,
            "count" : 2,
            "max" : [
                10.416666666666666
            ],
            "min" : [
                0.041666666666666664
            ],
            "type" : "SCALAR"
        },
        {
            "bufferView" : 17,
            "componentType" : 5126,
            "count" : 2,
            "type" : "VEC3"
        },
        {
            "bufferView" : 18,
            "componentType" : 5126,
            "count" : 250,
            "max" : [
                10.416666666666666
            ],
            "min" : [
                0.041666666666666664
            ],
            "type" : "SCALAR"
        },
        {
            "bufferView" : 19,
            "componentType" : 5126,
            "count" : 250,
            "type" : "VEC4"
        },
        {
            "bufferView" : 20,
            "componentType" : 5126,
            "count" : 2,
            "type" : "VEC3"
        }
    ],
    "bufferViews" : [
        {
            "buffer" : 0,
            "byteLength" : 4896,
            "byteOffset" : 0
        },
        {
            "buffer" : 0,
            "byteLength" : 4896,
            "byteOffset" : 4896
        },
        {
            "buffer" : 0,
            "byteLength" : 3264,
            "byteOffset" : 9792
        },
        {
            "buffer" : 0,
            "byteLength" : 4032,
            "byteOffset" : 13056
        },
        {
            "buffer" : 0,
            "byteLength" : 11460,
            "byteOffset" : 17088
        },
        {
            "buffer" : 0,
            "byteLength" : 11460,
            "byteOffset" : 28548
        },
        {
            "buffer" : 0,
            "byteLength" : 7640,
            "byteOffset" : 40008
        },
        {
            "buffer" : 0,
            "byteLength" : 8436,
            "byteOffset" : 47648
        },
        {
            "buffer" : 0,
            "byteLength" : 3924,
            "byteOffset" : 56084
        },
        {
            "buffer" : 0,
            "byteLength" : 3924,
            "byteOffset" : 60008
        },
        {
            "buffer" : 0,
            "byteLength" : 2616,
            "byteOffset" : 63932
        },
        {
            "buffer" : 0,
            "byteLength" : 3072,
            "byteOffset" : 66548
        },
        {
            "buffer" : 0,
            "byteLength" : 2664,
            "byteOffset" : 69620
        },
        {
            "buffer" : 0,
            "byteLength" : 2664,
            "byteOffset" : 72284
        },
        {
            "buffer" : 0,
            "byteLength" : 1776,
            "byteOffset" : 74948
        },
        {
            "buffer" : 0,
            "byteLength" : 672,
            "byteOffset" : 76724
        },
        {
            "buffer" : 0,
            "byteLength" : 8,
            "byteOffset" : 77396
        },
        {
            "buffer" : 0,
            "byteLength" : 24,
            "byteOffset" : 77404
        },
        {
            "buffer" : 0,
            "byteLength" : 1000,
            "byteOffset" : 77428
        },
        {
            "buffer" : 0,
            "byteLength" : 4000,
            "byteOffset" : 78428
        },
        {
            "buffer" : 0,
            "byteLength" : 24,
            "byteOffset" : 82428
        }
    ],
    "buffers" : [
        {
            "byteLength" : 82452,
            "uri" : "data:application/octet-stream;base64,"
        }
    ]
}
