{
    "asset" : {
        "generator" : "Khronos glTF Blender I/O v1.7.33",
        "version" : "2.0"
    },
    "scene" : 0,
    "scenes" : [
        {
            "name" : "Scene",
            "nodes" : [
                0
            ]
        }
    ],
    "nodes" : [
        {
            "mesh" : 0,
            "name" : "wrapper",
            "rotation" : [
                -0.6946583986282349,
                0,
                0,
                0.7193397879600525
            ],
            "scale" : [
                0.3531159460544586,
                2.0373282432556152,
                0.2683814764022827
            ],
            "translation" : [
                0,
                -2.102022409439087,
                -0.9599999785423279
            ]
        }
    ],
    "materials" : [
        {
            "doubleSided" : true,
            "name" : "Material.002",
            "pbrMetallicRoughness" : {
                "baseColorTexture" : {
                    "index" : 0
                },
                "metallicFactor" : 0,
                "roughnessFactor" : 0.5
            }
        },
        {
            "doubleSided" : true,
            "name" : "Material.001",
            "pbrMetallicRoughness" : {
                "baseColorFactor" : [
                    0.4178851246833801,
                    0.006995412986725569,
                    0.015208516269922256,
                    1
                ],
                "metallicFactor" : 0,
                "roughnessFactor" : 0.5
            }
        }
    ],
    "meshes" : [
        {
            "name" : "Cylinder.001",
            "primitives" : [
                {
                    "attributes" : {
                        "POSITION" : 0,
                        "NORMAL" : 1,
                        "TEXCOORD_0" : 2
                    },
                    "indices" : 3,
                    "material" : 0
                },
                {
                    "attributes" : {
                        "POSITION" : 4,
                        "NORMAL" : 5,
                        "TEXCOORD_0" : 6
                    },
                    "indices" : 7,
                    "material" : 1
                }
            ]
        }
    ],
    "textures" : [
        {
            "sampler" : 0,
            "source" : 0
        }
    ],
    "images" : [
        {
            "bufferView" : 4,
            "mimeType" : "image/png",
            "name" : "wrapper"
        }
    ],
    "accessors" : [
        {
            "bufferView" : 0,
            "componentType" : 5126,
            "count" : 128,
            "max" : [
                1.021653652191162,
                1.1444597244262695,
                0.9308441281318665
            ],
            "min" : [
                -1.021653652191162,
                -1.0683722496032715,
                -1.0701547861099243
            ],
            "type" : "VEC3"
        },
        {
            "bufferView" : 1,
            "componentType" : 5126,
            "count" : 128,
            "type" : "VEC3"
        },
        {
            "bufferView" : 2,
            "componentType" : 5126,
            "count" : 128,
            "type" : "VEC2"
        },
        {
            "bufferView" : 3,
            "componentType" : 5123,
            "count" : 192,
            "type" : "SCALAR"
        },
        {
            "bufferView" : 5,
            "componentType" : 5126,
            "count" : 704,
            "max" : [
                0.9818751811981201,
                1.2085918188095093,
                0.9411699771881104
            ],
            "min" : [
                -0.9818751811981201,
                -1.5254426002502441,
                -1.011866807937622
            ],
            "type" : "VEC3"
        },
        {
            "bufferView" : 6,
            "componentType" : 5126,
            "count" : 704,
            "type" : "VEC3"
        },
        {
            "bufferView" : 7,
            "componentType" : 5126,
            "count" : 704,
            "type" : "VEC2"
        },
        {
            "bufferView" : 8,
            "componentType" : 5123,
            "count" : 1140,
            "type" : "SCALAR"
        }
    ],
    "bufferViews" : [
        {
            "buffer" : 0,
            "byteLength" : 1536,
            "byteOffset" : 0
        },
        {
            "buffer" : 0,
            "byteLength" : 1536,
            "byteOffset" : 1536
        },
        {
            "buffer" : 0,
            "byteLength" : 1024,
            "byteOffset" : 3072
        },
        {
            "buffer" : 0,
            "byteLength" : 384,
            "byteOffset" : 4096
        },
        {
            "buffer" : 0,
            "byteLength" : 163960,
            "byteOffset" : 4480
        },
        {
            "buffer" : 0,
            "byteLength" : 8448,
            "byteOffset" : 168440
        },
        {
            "buffer" : 0,
            "byteLength" : 8448,
            "byteOffset" : 176888
        },
        {
            "buffer" : 0,
            "byteLength" : 5632,
            "byteOffset" : 185336
        },
        {
            "buffer" : 0,
            "byteLength" : 2280,
            "byteOffset" : 190968
        }
    ],
    "samplers" : [
        {
            "magFilter" : 9728,
            "minFilter" : 9984
        }
    ],
    "buffers" : [
        {
            "byteLength" : 193248,
            "uri" : "data:application/octet-stream;base64,"
        }
    ]
}
