{
    "asset" : {
        "generator" : "Khronos glTF Blender I/O v1.7.33",
        "version" : "2.0"
    },
    "scene" : 0,
    "scenes" : [
        {
            "name" : "Scene",
            "nodes" : [
                0,
                1,
                2,
                3,
                4
            ]
        }
    ],
    "nodes" : [
        {
            "mesh" : 0,
            "name" : "body",
            "rotation" : [
                0.7071068286895752,
                0,
                0,
                0.7071067094802856
            ]
        },
        {
            "mesh" : 1,
            "name" : "eye",
            "rotation" : [
                0.7071068286895752,
                0,
                0,
                0.7071067094802856
            ]
        },
        {
            "mesh" : 2,
            "name" : "eyeB",
            "rotation" : [
                0.7071068286895752,
                0,
                0,
                0.7071067094802856
            ]
        },
        {
            "mesh" : 3,
            "name" : "beak",
            "rotation" : [
                0.7071068286895752,
                0,
                0,
                0.7071067094802856
            ]
        },
        {
            "mesh" : 4,
            "name" : "Funnel3",
            "rotation" : [
                0.9998844265937805,
                0,
                0,
                -0.015209968201816082
            ],
            "scale" : [
                0.12623141705989838,
                0.12625089287757874,
                0.14575333893299103
            ],
            "translation" : [
                0.03251784294843674,
                0.13696107268333435,
                -0.0791110098361969
            ]
        }
    ],
    "materials" : [
        {
            "doubleSided" : true,
            "name" : "mtl_001",
            "pbrMetallicRoughness" : {
                "baseColorFactor" : [
                    0.800000011920929,
                    0.800000011920929,
                    0.800000011920929,
                    1
                ],
                "metallicFactor" : 0,
                "roughnessFactor" : 0.5
            }
        },
        {
            "doubleSided" : true,
            "name" : "mtl_002",
            "pbrMetallicRoughness" : {
                "baseColorFactor" : [
                    0.800000011920929,
                    0.800000011920929,
                    0.800000011920929,
                    1
                ],
                "metallicFactor" : 0,
                "roughnessFactor" : 0.5
            }
        },
        {
            "doubleSided" : true,
            "name" : "mtl_003",
            "pbrMetallicRoughness" : {
                "baseColorFactor" : [
                    0.800000011920929,
                    0.800000011920929,
                    0.800000011920929,
                    1
                ],
                "metallicFactor" : 0,
                "roughnessFactor" : 0.5
            }
        },
        {
            "doubleSided" : true,
            "name" : "mtl_004",
            "pbrMetallicRoughness" : {
                "baseColorFactor" : [
                    0.800000011920929,
                    0.800000011920929,
                    0.800000011920929,
                    1
                ],
                "metallicFactor" : 0,
                "roughnessFactor" : 0.5
            }
        },
        {
            "doubleSided" : true,
            "name" : "Funnel3",
            "pbrMetallicRoughness" : {
                "baseColorFactor" : [
                    0.800000011920929,
                    0.800000011920929,
                    0.800000011920929,
                    1
                ],
                "metallicFactor" : 0,
                "roughnessFactor" : 0.5
            }
        }
    ],
    "meshes" : [
        {
            "name" : "body",
            "primitives" : [
                {
                    "attributes" : {
                        "POSITION" : 0,
                        "NORMAL" : 1,
                        "TEXCOORD_0" : 2
                    },
                    "indices" : 3,
                    "material" : 0
                }
            ]
        },
        {
            "name" : "eye",
            "primitives" : [
                {
                    "attributes" : {
                        "POSITION" : 4,
                        "NORMAL" : 5,
                        "TEXCOORD_0" : 6
                    },
                    "indices" : 7,
                    "material" : 1
                }
            ]
        },
        {
            "name" : "eyeB",
            "primitives" : [
                {
                    "attributes" : {
                        "POSITION" : 8,
                        "NORMAL" : 9,
                        "TEXCOORD_0" : 10
                    },
                    "indices" : 11,
                    "material" : 2
                }
            ]
        },
        {
            "name" : "beak",
            "primitives" : [
                {
                    "attributes" : {
                        "POSITION" : 12,
                        "NORMAL" : 13,
                        "TEXCOORD_0" : 14
                    },
                    "indices" : 15,
                    "material" : 3
                }
            ]
        },
        {
            "name" : "Funnel3",
            "primitives" : [
                {
                    "attributes" : {
                        "POSITION" : 16,
                        "NORMAL" : 17,
                        "TEXCOORD_0" : 18
                    },
                    "indices" : 19,
                    "material" : 4
                }
            ]
        }
    ],
    "accessors" : [
        {
            "bufferView" : 0,
            "componentType" : 5126,
            "count" : 20452,
            "max" : [
                0.22234970331192017,
                0.2612262964248657,
                0.298460990190506
            ],
            "min" : [
                -0.22234970331192017,
                -0.3310891091823578,
                -0.2940405011177063
            ],
            "type" : "VEC3"
        },
        {
            "bufferView" : 1,
            "componentType" : 5126,
            "count" : 20452,
            "type" : "VEC3"
        },
        {
            "bufferView" : 2,
            "componentType" : 5126,
            "count" : 20452,
            "type" : "VEC2"
        },
        {
            "bufferView" : 3,
            "componentType" : 5123,
            "count" : 122256,
            "type" : "SCALAR"
        },
        {
            "bufferView" : 4,
            "componentType" : 5126,
            "count" : 1248,
            "max" : [
                0.13963909447193146,
                0.1571727991104126,
                -0.12893439829349518
            ],
            "min" : [
                -0.13963909447193146,
                0.0642239972949028,
                -0.2212096005678177
            ],
            "type" : "VEC3"
        },
        {
            "bufferView" : 5,
            "componentType" : 5126,
            "count" : 1248,
            "type" : "VEC3"
        },
        {
            "bufferView" : 6,
            "componentType" : 5126,
            "count" : 1248,
            "type" : "VEC2"
        },
        {
            "bufferView" : 7,
            "componentType" : 5123,
            "count" : 6912,
            "type" : "SCALAR"
        },
        {
            "bufferView" : 8,
            "componentType" : 5126,
            "count" : 482,
            "max" : [
                0.14058330655097961,
                0.13177110254764557,
                -0.15482810139656067
            ],
            "min" : [
                -0.14058330655097961,
                0.08952022343873978,
                -0.19702109694480896
            ],
            "type" : "VEC3"
        },
        {
            "bufferView" : 9,
            "componentType" : 5126,
            "count" : 482,
            "type" : "VEC3"
        },
        {
            "bufferView" : 10,
            "componentType" : 5126,
            "count" : 482,
            "type" : "VEC2"
        },
        {
            "bufferView" : 11,
            "componentType" : 5123,
            "count" : 2592,
            "type" : "SCALAR"
        },
        {
            "bufferView" : 12,
            "componentType" : 5126,
            "count" : 1000,
            "max" : [
                0.0878286063671112,
                0.33231788873672485,
                -0.08494245260953903
            ],
            "min" : [
                -0.0878286063671112,
                0.2177111953496933,
                -0.17513610422611237
            ],
            "type" : "VEC3"
        },
        {
            "bufferView" : 13,
            "componentType" : 5126,
            "count" : 1000,
            "type" : "VEC3"
        },
        {
            "bufferView" : 14,
            "componentType" : 5126,
            "count" : 1000,
            "type" : "VEC2"
        },
        {
            "bufferView" : 15,
            "componentType" : 5123,
            "count" : 5832,
            "type" : "SCALAR"
        },
        {
            "bufferView" : 16,
            "componentType" : 5126,
            "count" : 740,
            "max" : [
                1.1713000535964966,
                1.1713000535964966,
                -1.4163999557495117
            ],
            "min" : [
                -1.1713000535964966,
                -1.1713000535964966,
                -3.3025999069213867
            ],
            "type" : "VEC3"
        },
        {
            "bufferView" : 17,
            "componentType" : 5126,
            "count" : 740,
            "type" : "VEC3"
        },
        {
            "bufferView" : 18,
            "componentType" : 5126,
            "count" : 740,
            "type" : "VEC2"
        },
        {
            "bufferView" : 19,
            "componentType" : 5123,
            "count" : 3672,
            "type" : "SCALAR"
        }
    ],
    "bufferViews" : [
        {
            "buffer" : 0,
            "byteLength" : 245424,
            "byteOffset" : 0
        },
        {
            "buffer" : 0,
            "byteLength" : 245424,
            "byteOffset" : 245424
        },
        {
            "buffer" : 0,
            "byteLength" : 163616,
            "byteOffset" : 490848
        },
        {
            "buffer" : 0,
            "byteLength" : 244512,
            "byteOffset" : 654464
        },
        {
            "buffer" : 0,
            "byteLength" : 14976,
            "byteOffset" : 898976
        },
        {
            "buffer" : 0,
            "byteLength" : 14976,
            "byteOffset" : 913952
        },
        {
            "buffer" : 0,
            "byteLength" : 9984,
            "byteOffset" : 928928
        },
        {
            "buffer" : 0,
            "byteLength" : 13824,
            "byteOffset" : 938912
        },
        {
            "buffer" : 0,
            "byteLength" : 5784,
            "byteOffset" : 952736
        },
        {
            "buffer" : 0,
            "byteLength" : 5784,
            "byteOffset" : 958520
        },
        {
            "buffer" : 0,
            "byteLength" : 3856,
            "byteOffset" : 964304
        },
        {
            "buffer" : 0,
            "byteLength" : 5184,
            "byteOffset" : 968160
        },
        {
            "buffer" : 0,
            "byteLength" : 12000,
            "byteOffset" : 973344
        },
        {
            "buffer" : 0,
            "byteLength" : 12000,
            "byteOffset" : 985344
        },
        {
            "buffer" : 0,
            "byteLength" : 8000,
            "byteOffset" : 997344
        },
        {
            "buffer" : 0,
            "byteLength" : 11664,
            "byteOffset" : 1005344
        },
        {
            "buffer" : 0,
            "byteLength" : 8880,
            "byteOffset" : 1017008
        },
        {
            "buffer" : 0,
            "byteLength" : 8880,
            "byteOffset" : 1025888
        },
        {
            "buffer" : 0,
            "byteLength" : 5920,
            "byteOffset" : 1034768
        },
        {
            "buffer" : 0,
            "byteLength" : 7344,
            "byteOffset" : 1040688
        }
    ],
    "buffers" : [
        {
            "byteLength" : 1048032,
            "uri" : "data:application/octet-stream;base64,"
        }
    ]
}
