{
    "asset" : {
        "generator" : "Khronos glTF Blender I/O v1.7.33",
        "version" : "2.0"
    },
    "scene" : 0,
    "scenes" : [
        {
            "name" : "Scene",
            "nodes" : [
                0,
                1,
                2,
                3,
                4
            ]
        }
    ],
    "nodes" : [
        {
            "mesh" : 0,
            "name" : "N Joint",
            "rotation" : [
                0.7071067690849304,
                0,
                0,
                0.7071068286895752
            ],
            "translation" : [
                -1.6925528049468994,
                1.039113998413086,
                -4.901247024536133
            ]
        },
        {
            "mesh" : 1,
            "name" : "Cross Joint",
            "rotation" : [
                0.7071067690849304,
                0,
                0,
                0.7071068286895752
            ],
            "translation" : [
                -3.1247129440307617,
                1.039113998413086,
                5.119706153869629
            ]
        },
        {
            "mesh" : 2,
            "name" : "Wye Joint",
            "rotation" : [
                0.7071067690849304,
                0,
                0,
                0.7071068286895752
            ],
            "translation" : [
                3.5080347061157227,
                1.039113998413086,
                3.7402915954589844
            ]
        },
        {
            "mesh" : 3,
            "name" : "Tee Joint",
            "rotation" : [
                0.7071067690849304,
                0,
                0,
                0.7071068286895752
            ],
            "translation" : [
                5.842325687408447,
                1.039113998413086,
                -4.159747123718262
            ]
        },
        {
            "mesh" : 4,
            "name" : "Elbow Joint",
            "rotation" : [
                0.7071067690849304,
                0,
                0,
                0.7071068286895752
            ],
            "translation" : [
                -5.559453010559082,
                1.039113998413086,
                0
            ]
        }
    ],
    "materials" : [
        {
            "doubleSided" : true,
            "name" : "Material.001",
            "pbrMetallicRoughness" : {}
        }
    ],
    "meshes" : [
        {
            "name" : "N Joint",
            "primitives" : [
                {
                    "attributes" : {
                        "POSITION" : 0,
                        "NORMAL" : 1
                    },
                    "indices" : 2,
                    "material" : 0
                }
            ]
        },
        {
            "name" : "Cross Joint",
            "primitives" : [
                {
                    "attributes" : {
                        "POSITION" : 3,
                        "NORMAL" : 4
                    },
                    "indices" : 5,
                    "material" : 0
                }
            ]
        },
        {
            "name" : "Wye Joint",
            "primitives" : [
                {
                    "attributes" : {
                        "POSITION" : 6,
                        "NORMAL" : 7
                    },
                    "indices" : 8,
                    "material" : 0
                }
            ]
        },
        {
            "name" : "Tee Joint",
            "primitives" : [
                {
                    "attributes" : {
                        "POSITION" : 9,
                        "NORMAL" : 10
                    },
                    "indices" : 8,
                    "material" : 0
                }
            ]
        },
        {
            "name" : "Elbow Joint",
            "primitives" : [
                {
                    "attributes" : {
                        "POSITION" : 11,
                        "NORMAL" : 12
                    },
                    "indices" : 13,
                    "material" : 0
                }
            ]
        }
    ],
    "accessors" : [
        {
            "bufferView" : 0,
            "componentType" : 5126,
            "count" : 237,
            "max" : [
                3.162186622619629,
                3,
                1
            ],
            "min" : [
                -3.162186622619629,
                -3.014836311340332,
                -1
            ],
            "type" : "VEC3"
        },
        {
            "bufferView" : 1,
            "componentType" : 5126,
            "count" : 237,
            "type" : "VEC3"
        },
        {
            "bufferView" : 2,
            "componentType" : 5123,
            "count" : 960,
            "type" : "SCALAR"
        },
        {
            "bufferView" : 3,
            "componentType" : 5126,
            "count" : 190,
            "max" : [
                3,
                3,
                1
            ],
            "min" : [
                -3,
                -3,
                -1
            ],
            "type" : "VEC3"
        },
        {
            "bufferView" : 4,
            "componentType" : 5126,
            "count" : 190,
            "type" : "VEC3"
        },
        {
            "bufferView" : 5,
            "componentType" : 5123,
            "count" : 768,
            "type" : "SCALAR"
        },
        {
            "bufferView" : 6,
            "componentType" : 5126,
            "count" : 143,
            "max" : [
                2.8284270763397217,
                2.8284270763397217,
                1
            ],
            "min" : [
                -2.8284270763397217,
                -3,
                -1
            ],
            "type" : "VEC3"
        },
        {
            "bufferView" : 7,
            "componentType" : 5126,
            "count" : 143,
            "type" : "VEC3"
        },
        {
            "bufferView" : 8,
            "componentType" : 5123,
            "count" : 576,
            "type" : "SCALAR"
        },
        {
            "bufferView" : 9,
            "componentType" : 5126,
            "count" : 143,
            "max" : [
                1,
                3,
                1
            ],
            "min" : [
                -3,
                -3,
                -1
            ],
            "type" : "VEC3"
        },
        {
            "bufferView" : 10,
            "componentType" : 5126,
            "count" : 143,
            "type" : "VEC3"
        },
        {
            "bufferView" : 11,
            "componentType" : 5126,
            "count" : 96,
            "max" : [
                1,
                2.8284270763397217,
                1
            ],
            "min" : [
                -2.8284270763397217,
                -3,
                -1
            ],
            "type" : "VEC3"
        },
        {
            "bufferView" : 12,
            "componentType" : 5126,
            "count" : 96,
            "type" : "VEC3"
        },
        {
            "bufferView" : 13,
            "componentType" : 5123,
            "count" : 384,
            "type" : "SCALAR"
        }
    ],
    "bufferViews" : [
        {
            "buffer" : 0,
            "byteLength" : 2844,
            "byteOffset" : 0
        },
        {
            "buffer" : 0,
            "byteLength" : 2844,
            "byteOffset" : 2844
        },
        {
            "buffer" : 0,
            "byteLength" : 1920,
            "byteOffset" : 5688
        },
        {
            "buffer" : 0,
            "byteLength" : 2280,
            "byteOffset" : 7608
        },
        {
            "buffer" : 0,
            "byteLength" : 2280,
            "byteOffset" : 9888
        },
        {
            "buffer" : 0,
            "byteLength" : 1536,
            "byteOffset" : 12168
        },
        {
            "buffer" : 0,
            "byteLength" : 1716,
            "byteOffset" : 13704
        },
        {
            "buffer" : 0,
            "byteLength" : 1716,
            "byteOffset" : 15420
        },
        {
            "buffer" : 0,
            "byteLength" : 1152,
            "byteOffset" : 17136
        },
        {
            "buffer" : 0,
            "byteLength" : 1716,
            "byteOffset" : 18288
        },
        {
            "buffer" : 0,
            "byteLength" : 1716,
            "byteOffset" : 20004
        },
        {
            "buffer" : 0,
            "byteLength" : 1152,
            "byteOffset" : 21720
        },
        {
            "buffer" : 0,
            "byteLength" : 1152,
            "byteOffset" : 22872
        },
        {
            "buffer" : 0,
            "byteLength" : 768,
            "byteOffset" : 24024
        }
    ],
    "buffers" : [
        {
            "byteLength" : 24792,
            "uri" : "data:application/octet-stream;base64,"
        }
    ]
}
